<?xml version="1.0" encoding="utf-8"?>
<!-- Generator: Adobe Illustrator 24.3.0, SVG Export Plug-In . SVG Version: 6.00 Build 0)  -->
<svg version="1.1" id="Capa_1" xmlns="http://www.w3.org/2000/svg" xmlns:xlink="http://www.w3.org/1999/xlink" x="0px" y="0px"
	 viewBox="0 0 357.5 357.5" style="enable-background:new 0 0 357.5 357.5;" xml:space="preserve">
<style type="text/css">
	.st0{fill:#FFFFFF;}
</style>
<g>
	<g>
		<path class="st0" d="M353.4,108.1c0-12.1-9.9-22-22-22H217.7c-4.1,0-7.5,3.4-7.5,7.5v35.4c0,2.6,1.3,5,3.5,6.4
			c2.2,1.4,4.9,1.5,7.2,0.4c3.3-1.6,6.9-2.4,10.6-2.4c13.4,0,24.3,10.9,24.3,24.3c0,13.4-10.9,24.3-24.3,24.3
			c-3.7,0-7.3-0.8-10.6-2.4c-2.3-1.1-5.1-1-7.2,0.4c-2.2,1.4-3.5,3.8-3.5,6.4v28h-17.8c0.3-2.1,0.5-4.2,0.5-6.3
			c0-21.7-17.6-39.3-39.3-39.3c-21.7,0-39.3,17.6-39.3,39.3c0,2.1,0.2,4.2,0.5,6.3H89.5c-4.1,0-7.5,3.4-7.5,7.5v113.7
			c0,12.1,9.9,22,22,22h227.3c12.1,0,22-9.9,22-22V108.1z M97,335.5V229.3h27.9c2.6,0,5-1.3,6.4-3.5c1.4-2.2,1.5-4.9,0.4-7.2
			c-1.6-3.3-2.4-6.9-2.4-10.6c0-13.4,10.9-24.3,24.3-24.3c13.4,0,24.3,10.9,24.3,24.3c0,3.7-0.8,7.3-2.4,10.6
			c-1.1,2.3-1,5.1,0.4,7.2c1.4,2.2,3.8,3.5,6.4,3.5h27.9v17.8c-2.1-0.3-4.2-0.5-6.3-0.5c0,0,0,0,0,0c0,0,0,0,0,0
			c-21.7,0-39.3,17.6-39.3,39.3c0,21.7,17.6,39.3,39.3,39.3c0,0,0,0,0,0c0,0,0,0,0,0c2.1,0,4.2-0.2,6.3-0.5v17.8H104
			C100.2,342.5,97,339.4,97,335.5z M338.4,335.5c0,3.9-3.1,7-7,7H225.2v-27.9c0-2.6-1.3-5-3.5-6.4c-1.4-0.9-3-1.2-4.5-1.1
			c-0.9,0.1-1.9,0.3-2.7,0.7c-3.3,1.6-6.9,2.4-10.6,2.4c-13.4,0-24.3-10.9-24.3-24.3c0-13.4,10.9-24.3,24.3-24.3
			c3.7,0,7.3,0.8,10.6,2.4c1.2,0.6,2.4,0.8,3.7,0.7c1.2-0.1,2.5-0.4,3.6-1.1c2.2-1.4,3.5-3.8,3.5-6.4v-27.9h17.8
			c-0.3,2.1-0.5,4.2-0.5,6.3c0,0,0,0,0,0c0,0,0,0,0,0c0,21.7,17.6,39.3,39.3,39.3c21.7,0,39.3-17.6,39.3-39.3c0,0,0,0,0,0
			c0-2.1-0.2-4.2-0.5-6.3h17.8L338.4,335.5L338.4,335.5z M338.4,214.3h-27.9c-2.6,0-5,1.3-6.4,3.5c-0.7,1.1-1.1,2.3-1.1,3.6
			c-0.1,1.2,0.2,2.5,0.7,3.7c1.6,3.3,2.4,6.9,2.4,10.6c0,13.4-10.9,24.3-24.3,24.3c-13.4,0-24.3-10.9-24.3-24.3
			c0-3.7,0.8-7.2,2.4-10.5c0.6-1.2,0.8-2.4,0.7-3.7c-0.1-1.3-0.4-2.5-1.1-3.6c-1.4-2.2-3.8-3.5-6.4-3.5h-27.9v-17.8
			c2.1,0.3,4.2,0.5,6.3,0.5c21.7,0,39.3-17.6,39.3-39.3c0-21.7-17.6-39.3-39.3-39.3c-2.1,0-4.2,0.2-6.3,0.5v-17.8h106.2
			c3.9,0,7,3.1,7,7L338.4,214.3L338.4,214.3z"/>
		<g>
			<path class="st0" d="M64.6,187.3c-0.8,0-1.6-0.1-2.3-0.4c-1.9-0.6-3.5-2-4.4-3.7L6.5,81.8C3.9,76.5,3.4,70.6,5.3,65
				s5.7-10.1,11-12.8L117.6,0.8c3.7-1.9,8.2-0.4,10.1,3.3l11.4,22.5c1.7-1.2,3.5-2.3,5.4-3.3c5.6-2.8,11.5-4.3,17.7-4.3
				c14.9,0,28.4,8.3,35.1,21.6c9.8,19.3,2,43-17.3,52.8c-1.9,1-3.9,1.8-5.9,2.4l11.4,22.5c1.9,3.7,0.4,8.2-3.3,10.1l-31.6,16
				c-2.3,1.2-5,1.1-7.3-0.3c-2.2-1.3-3.6-3.7-3.6-6.3c-0.1-3.7-1-7.2-2.6-10.5c-4.2-8.2-12.5-13.3-21.7-13.3c-3.8,0-7.5,0.9-11,2.6
				c-5.8,2.9-10.1,8-12.1,14.1c-2,6.2-1.5,12.8,1.4,18.6c1.7,3.3,4,6.1,6.9,8.3c2.1,1.6,3.2,4.1,2.9,6.6c-0.2,2.6-1.8,4.8-4.1,6
				l-31.6,16C67,187,65.8,187.3,64.6,187.3z M117.7,17.6L23,65.6c-1.7,0.8-2.9,2.3-3.5,4.1c-0.6,1.8-0.4,3.7,0.4,5.3l48,94.7l15.9-8
				c-1.2-1.7-2.3-3.5-3.3-5.4c-4.7-9.4-5.6-20-2.3-30c3.3-10,10.2-18.1,19.6-22.8c5.5-2.8,11.6-4.3,17.7-4.3
				c14.9,0,28.4,8.3,35.1,21.6c1,1.9,1.8,3.9,2.4,5.9l15.9-8l-12.6-24.9c-1.2-2.3-1.1-5,0.3-7.3s3.7-3.6,6.3-3.6
				c3.7-0.1,7.2-1,10.5-2.6c12-6.1,16.8-20.7,10.7-32.7c-4.2-8.2-12.5-13.3-21.7-13.3c-3.8,0-7.5,0.9-11,2.6c-3.3,1.7-6.1,4-8.3,6.9
				c-1.6,2.1-4.1,3.1-6.6,2.9c-2.6-0.2-4.8-1.8-6-4.1L117.7,17.6z"/>
		</g>
	</g>
</g>
</svg>
