<?xml version="1.0" encoding="utf-8"?>
<!-- Generator: Adobe Illustrator 24.3.0, SVG Export Plug-In . SVG Version: 6.00 Build 0)  -->
<svg version="1.1" id="Слой_1" xmlns="http://www.w3.org/2000/svg" xmlns:xlink="http://www.w3.org/1999/xlink" x="0px" y="0px"
	 viewBox="0 0 500 500" style="enable-background:new 0 0 500 500;" xml:space="preserve">
<style type="text/css">
	.st0{fill:#FFFFFF;}
</style>
<path class="st0" d="M222.1,20c-4.9,0-9.1,3.5-9.9,8.4l-9.7,59.6c-11.7,3.4-22.8,8-33.4,13.7L120,66.5c-4-2.8-9.4-2.4-12.9,1.1
	l-38.9,38.9c-3.4,3.4-3.9,8.8-1.1,12.8l34.6,49.5c-5.8,10.6-10.5,21.8-14,33.6l-59.3,9.9c-4.8,0.8-8.3,5-8.3,9.9v55
	c0,4.9,3.5,9,8.2,9.9l59.3,10.5c3.5,11.8,8.1,23,13.9,33.6l-35,49c-2.8,4-2.4,9.4,1.1,12.9l38.9,38.9c3.4,3.4,8.8,3.9,12.8,1.1
	l49.6-34.7c10.5,5.8,21.7,10.4,33.5,13.8l9.9,59.6c0.8,4.8,5,8.4,9.9,8.4h55c4.9,0,9-3.5,9.9-8.3l10.6-59.9
	c11.7-3.5,22.8-8.2,33.3-14l49.9,35c4,2.8,9.4,2.3,12.8-1.1l38.9-38.9c3.5-3.5,3.9-8.9,1-12.9l-35.6-49.4
	c5.7-10.4,10.3-21.5,13.7-33.1l60.2-10.5c4.8-0.8,8.3-5,8.3-9.9v-55c0-4.9-3.5-9.1-8.4-9.9l-60.1-9.8c-3.4-11.6-8-22.6-13.7-33.1
	l35.1-50c2.8-4,2.3-9.4-1.1-12.8l-38.9-38.9c-3.5-3.5-8.9-3.9-12.9-1L330.7,102c-10.5-5.8-21.6-10.4-33.3-13.9l-10.5-59.8
	c-0.8-4.8-5-8.3-9.9-8.3H222.1z M230.6,40h38.1l10,56.9c0.7,3.9,3.6,7,7.4,8c14.6,3.6,28.4,9.4,40.9,17c3.4,2.1,7.8,1.9,11-0.4
	l46.8-33.6l26.9,26.9l-33.3,47.5c-2.3,3.2-2.4,7.5-0.4,10.9c7.5,12.5,13.2,26.2,16.9,40.7c1,3.9,4.1,6.8,8.1,7.4l57.1,9.3v38.1
	l-57.2,10c-3.9,0.7-7,3.6-8,7.5c-3.6,14.5-9.3,28.2-16.8,40.7c-2.1,3.4-1.9,7.8,0.4,11l33.8,46.9l-26.9,27l-47.4-33.3
	c-3.3-2.3-7.5-2.4-10.9-0.4c-12.5,7.6-26.2,13.4-40.8,17.1c-3.8,1-6.7,4.1-7.4,7.9L268.7,460h-38.1l-9.4-56.6
	c-0.7-3.9-3.6-7.1-7.5-8.1c-14.6-3.6-28.4-9.4-41.1-17c-3.4-2-7.6-1.9-10.9,0.4l-47,32.9l-27-27l33.2-46.5c2.3-3.3,2.5-7.6,0.4-11
	c-7.7-12.7-13.5-26.5-17.1-41.2c-1-3.8-4.1-6.7-7.9-7.4l-56.3-10v-38.1l56.3-9.4c3.9-0.7,7.1-3.6,8.1-7.4
	c3.7-14.7,9.5-28.5,17.1-41.2c2.1-3.4,1.9-7.7-0.4-10.9l-32.9-47l27-27l46.6,33.3c3.2,2.3,7.5,2.5,11,0.4
	c12.6-7.5,26.4-13.3,41-16.9c3.9-1,6.8-4.1,7.5-8.1L230.6,40z M250,170c-44.1,0-80,35.9-80,80s35.9,80,80,80s80-35.9,80-80
	S294.1,170,250,170z M250,190c33.3,0,60,26.7,60,60s-26.7,60-60,60s-60-26.7-60-60S216.7,190,250,190z"/>
</svg>
